<svg xmlns="http://www.w3.org/2000/svg" width="16" height="16" viewBox="0 0 16 16" fill="none">
  <path fill-rule="evenodd" clip-rule="evenodd" d="M7.99996 5.33333C8.73329 5.33333 9.33329 4.73333 9.33329 4C9.33329 3.26667 8.73329 2.66667 7.99996 2.66667C7.26663 2.66667 6.66663 3.26667 6.66663 4C6.66663 4.73333 7.26663 5.33333 7.99996 5.33333ZM7.99996 6.66667C7.26663 6.66667 6.66663 7.26667 6.66663 8C6.66663 8.73333 7.26663 9.33333 7.99996 9.33333C8.73329 9.33333 9.33329 8.73333 9.33329 8C9.33329 7.26667 8.73329 6.66667 7.99996 6.66667ZM6.66663 12C6.66663 11.2667 7.26663 10.6667 7.99996 10.6667C8.73329 10.6667 9.33329 11.2667 9.33329 12C9.33329 12.7333 8.73329 13.3333 7.99996 13.3333C7.26663 13.3333 6.66663 12.7333 6.66663 12Z" fill="white"/>
</svg>