<svg preserveAspectRatio="none" width="100%" height="100%" overflow="visible" style="display: block;" viewBox="0 0 8.00003 10" fill="none" xmlns="http://www.w3.org/2000/svg">
<path id="Vector" d="M2.78613 9.49512C2.37341 9.4536 2.04638 9.1266 2.00488 8.71387C2.04683 9.12443 2.37557 9.45316 2.78613 9.49512ZM7.43164 6.24609C7.44342 6.27686 7.45511 6.30778 7.46387 6.33984C7.45518 6.30789 7.44337 6.277 7.43164 6.24609ZM1.32129 5.58594C1.35086 5.57254 1.38102 5.56 1.41113 5.54688C1.38071 5.5601 1.35057 5.5727 1.32129 5.58594ZM6.29199 5.42578C6.34589 5.44627 6.3988 5.4678 6.45117 5.48926C6.39936 5.46812 6.34647 5.44659 6.29199 5.42578ZM1.62207 5.45898C1.6771 5.4372 1.73339 5.41718 1.79004 5.39648C1.73271 5.41736 1.67646 5.43752 1.62207 5.45898ZM1.95215 5.33789C2.03001 5.31172 2.10978 5.28841 2.19043 5.26465C2.10888 5.28863 2.02912 5.31209 1.95215 5.33789ZM2.29883 5.23242C2.3867 5.20818 2.47644 5.18699 2.56738 5.16602C2.47564 5.18719 2.38587 5.20844 2.29883 5.23242ZM5.17285 5.11133C5.22007 5.12019 5.26701 5.12887 5.31348 5.13867L5.17285 5.11133ZM2.69727 5.13574C2.79956 5.11436 2.90389 5.0968 3.00977 5.08008C2.90313 5.09698 2.79874 5.1145 2.69727 5.13574ZM3.10352 5.06445C3.14136 5.05905 3.17949 5.05456 3.21777 5.0498C3.17941 5.0546 3.14127 5.05904 3.10352 5.06445ZM4.77051 5.04883C4.80581 5.05315 4.84104 5.05666 4.87598 5.06152C4.84108 5.05652 4.80581 5.05323 4.77051 5.04883ZM4.39258 5.0127C4.42332 5.0146 4.45389 5.0172 4.48437 5.01953C4.4539 5.01721 4.42334 5.01457 4.39258 5.0127ZM3.55078 5.01562C3.56927 5.01431 3.58786 5.01385 3.60645 5.0127C3.58785 5.01386 3.56926 5.0143 3.55078 5.01562ZM2.53027 2.30176C2.65052 2.88665 3.11335 3.34947 3.69824 3.46973L3.84668 3.49219C3.19093 3.42569 2.66018 2.93753 2.53027 2.30273V2.30176ZM5.46973 2.30273C5.34983 2.88859 4.88859 3.34985 4.30273 3.46973L4.15332 3.49219C4.80728 3.42529 5.33947 2.93532 5.46973 2.30176V2.30273ZM3.84668 0.507812C3.19274 0.574739 2.66052 1.06469 2.53027 1.69824L2.50781 1.84668C2.57429 1.19093 3.06248 0.660191 3.69727 0.530273L3.84668 0.507812ZM4.15332 0.507812C4.80909 0.574281 5.33982 1.06246 5.46973 1.69727L5.49219 1.84668C5.42527 1.19272 4.93533 0.660513 4.30176 0.530273L4.15332 0.507812ZM2.78613 7.75488C2.37557 7.79684 2.04683 8.12557 2.00488 8.53613C2.04638 8.1234 2.37341 7.7964 2.78613 7.75488ZM4.60742 7.75L4.74219 7.46289L5.51758 5.8125L4.12207 8.78809L3.78809 9.5L3.92285 9.21191L4.27344 8.46191L4.60547 7.75H4.60742ZM0.5 6.60645C0.498914 6.43574 0.543789 6.26876 0.626953 6.12012C0.544875 6.26924 0.5 6.43834 0.5 6.61035V6.60645Z" stroke="var(--stroke-0, white)"/>
</svg>
